0
SECTION
2
HEADER
9
$ACADVER
1
AC1009
0
ENDSEC
0
SECTION
2
ENTITIES
0
POLYLINE
8
PROFILE
66
1
70
1
10
0.0
20
0.0
30
0.0
0
VERTEX
8
PROFILE
10
0.000000
20
0.000000
30
0.0
0
VERTEX
8
PROFILE
10
16.000000
20
0.000000
30
0.0
0
VERTEX
8
PROFILE
10
16.211204
20
0.798319
30
0.0
0
VERTEX
8
PROFILE
10
16.424612
20
1.596639
30
0.0
0
VERTEX
8
PROFILE
10
16.640165
20
2.394958
30
0.0
0
VERTEX
8
PROFILE
10
16.857806
20
3.193277
30
0.0
0
VERTEX
8
PROFILE
10
17.077480
20
3.991597
30
0.0
0
VERTEX
8
PROFILE
10
17.299128
20
4.789916
30
0.0
0
VERTEX
8
PROFILE
10
17.522695
20
5.588235
30
0.0
0
VERTEX
8
PROFILE
10
17.748122
20
6.386555
30
0.0
0
VERTEX
8
PROFILE
10
17.975354
20
7.184874
30
0.0
0
VERTEX
8
PROFILE
10
18.204332
20
7.983193
30
0.0
0
VERTEX
8
PROFILE
10
18.435000
20
8.781513
30
0.0
0
VERTEX
8
PROFILE
10
18.667302
20
9.579832
30
0.0
0
VERTEX
8
PROFILE
10
18.901180
20
10.378151
30
0.0
0
VERTEX
8
PROFILE
10
19.136576
20
11.176471
30
0.0
0
VERTEX
8
PROFILE
10
19.373435
20
11.974790
30
0.0
0
VERTEX
8
PROFILE
10
19.611700
20
12.773109
30
0.0
0
VERTEX
8
PROFILE
10
19.851312
20
13.571429
30
0.0
0
VERTEX
8
PROFILE
10
20.092216
20
14.369748
30
0.0
0
VERTEX
8
PROFILE
10
20.334354
20
15.168067
30
0.0
0
VERTEX
8
PROFILE
10
20.577669
20
15.966387
30
0.0
0
VERTEX
8
PROFILE
10
20.822105
20
16.764706
30
0.0
0
VERTEX
8
PROFILE
10
21.067604
20
17.563025
30
0.0
0
VERTEX
8
PROFILE
10
21.314109
20
18.361345
30
0.0
0
VERTEX
8
PROFILE
10
21.561564
20
19.159664
30
0.0
0
VERTEX
8
PROFILE
10
21.809912
20
19.957983
30
0.0
0
VERTEX
8
PROFILE
10
22.059095
20
20.756303
30
0.0
0
VERTEX
8
PROFILE
10
22.309056
20
21.554622
30
0.0
0
VERTEX
8
PROFILE
10
22.559739
20
22.352941
30
0.0
0
VERTEX
8
PROFILE
10
22.811087
20
23.151261
30
0.0
0
VERTEX
8
PROFILE
10
23.063043
20
23.949580
30
0.0
0
VERTEX
8
PROFILE
10
23.315549
20
24.747899
30
0.0
0
VERTEX
8
PROFILE
10
23.568549
20
25.546218
30
0.0
0
VERTEX
8
PROFILE
10
23.821985
20
26.344538
30
0.0
0
VERTEX
8
PROFILE
10
24.075802
20
27.142857
30
0.0
0
VERTEX
8
PROFILE
10
24.329941
20
27.941176
30
0.0
0
VERTEX
8
PROFILE
10
24.584346
20
28.739496
30
0.0
0
VERTEX
8
PROFILE
10
24.838960
20
29.537815
30
0.0
0
VERTEX
8
PROFILE
10
25.093726
20
30.336134
30
0.0
0
VERTEX
8
PROFILE
10
25.348587
20
31.134454
30
0.0
0
VERTEX
8
PROFILE
10
25.603485
20
31.932773
30
0.0
0
VERTEX
8
PROFILE
10
25.858365
20
32.731092
30
0.0
0
VERTEX
8
PROFILE
10
26.113169
20
33.529412
30
0.0
0
VERTEX
8
PROFILE
10
26.367840
20
34.327731
30
0.0
0
VERTEX
8
PROFILE
10
26.622321
20
35.126050
30
0.0
0
VERTEX
8
PROFILE
10
26.876555
20
35.924370
30
0.0
0
VERTEX
8
PROFILE
10
27.130486
20
36.722689
30
0.0
0
VERTEX
8
PROFILE
10
27.384055
20
37.521008
30
0.0
0
VERTEX
8
PROFILE
10
27.637207
20
38.319328
30
0.0
0
VERTEX
8
PROFILE
10
27.889884
20
39.117647
30
0.0
0
VERTEX
8
PROFILE
10
28.142029
20
39.915966
30
0.0
0
VERTEX
8
PROFILE
10
28.393586
20
40.714286
30
0.0
0
VERTEX
8
PROFILE
10
28.644497
20
41.512605
30
0.0
0
VERTEX
8
PROFILE
10
28.894705
20
42.310924
30
0.0
0
VERTEX
8
PROFILE
10
29.144154
20
43.109244
30
0.0
0
VERTEX
8
PROFILE
10
29.392787
20
43.907563
30
0.0
0
VERTEX
8
PROFILE
10
29.640545
20
44.705882
30
0.0
0
VERTEX
8
PROFILE
10
29.887374
20
45.504202
30
0.0
0
VERTEX
8
PROFILE
10
30.133215
20
46.302521
30
0.0
0
VERTEX
8
PROFILE
10
30.378011
20
47.100840
30
0.0
0
VERTEX
8
PROFILE
10
30.621706
20
47.899160
30
0.0
0
VERTEX
8
PROFILE
10
30.864243
20
48.697479
30
0.0
0
VERTEX
8
PROFILE
10
31.105565
20
49.495798
30
0.0
0
VERTEX
8
PROFILE
10
31.345614
20
50.294118
30
0.0
0
VERTEX
8
PROFILE
10
31.584334
20
51.092437
30
0.0
0
VERTEX
8
PROFILE
10
31.821667
20
51.890756
30
0.0
0
VERTEX
8
PROFILE
10
32.057558
20
52.689076
30
0.0
0
VERTEX
8
PROFILE
10
32.291948
20
53.487395
30
0.0
0
VERTEX
8
PROFILE
10
32.524781
20
54.285714
30
0.0
0
VERTEX
8
PROFILE
10
32.756000
20
55.084034
30
0.0
0
VERTEX
8
PROFILE
10
32.985549
20
55.882353
30
0.0
0
VERTEX
8
PROFILE
10
33.213369
20
56.680672
30
0.0
0
VERTEX
8
PROFILE
10
33.439404
20
57.478992
30
0.0
0
VERTEX
8
PROFILE
10
33.663597
20
58.277311
30
0.0
0
VERTEX
8
PROFILE
10
33.885891
20
59.075630
30
0.0
0
VERTEX
8
PROFILE
10
34.106229
20
59.873950
30
0.0
0
VERTEX
8
PROFILE
10
34.324555
20
60.672269
30
0.0
0
VERTEX
8
PROFILE
10
34.540810
20
61.470588
30
0.0
0
VERTEX
8
PROFILE
10
34.754939
20
62.268908
30
0.0
0
VERTEX
8
PROFILE
10
34.966884
20
63.067227
30
0.0
0
VERTEX
8
PROFILE
10
35.176588
20
63.865546
30
0.0
0
VERTEX
8
PROFILE
10
35.383995
20
64.663866
30
0.0
0
VERTEX
8
PROFILE
10
35.589046
20
65.462185
30
0.0
0
VERTEX
8
PROFILE
10
35.791687
20
66.260504
30
0.0
0
VERTEX
8
PROFILE
10
35.991858
20
67.058824
30
0.0
0
VERTEX
8
PROFILE
10
36.189504
20
67.857143
30
0.0
0
VERTEX
8
PROFILE
10
36.384568
20
68.655462
30
0.0
0
VERTEX
8
PROFILE
10
36.576992
20
69.453782
30
0.0
0
VERTEX
8
PROFILE
10
36.766719
20
70.252101
30
0.0
0
VERTEX
8
PROFILE
10
36.953693
20
71.050420
30
0.0
0
VERTEX
8
PROFILE
10
37.137857
20
71.848739
30
0.0
0
VERTEX
8
PROFILE
10
37.319153
20
72.647059
30
0.0
0
VERTEX
8
PROFILE
10
37.497525
20
73.445378
30
0.0
0
VERTEX
8
PROFILE
10
37.672916
20
74.243697
30
0.0
0
VERTEX
8
PROFILE
10
37.845268
20
75.042017
30
0.0
0
VERTEX
8
PROFILE
10
38.014525
20
75.840336
30
0.0
0
VERTEX
8
PROFILE
10
38.180630
20
76.638655
30
0.0
0
VERTEX
8
PROFILE
10
38.343525
20
77.436975
30
0.0
0
VERTEX
8
PROFILE
10
38.503155
20
78.235294
30
0.0
0
VERTEX
8
PROFILE
10
38.659461
20
79.033613
30
0.0
0
VERTEX
8
PROFILE
10
38.812387
20
79.831933
30
0.0
0
VERTEX
8
PROFILE
10
38.961877
20
80.630252
30
0.0
0
VERTEX
8
PROFILE
10
39.107872
20
81.428571
30
0.0
0
VERTEX
8
PROFILE
10
39.250316
20
82.226891
30
0.0
0
VERTEX
8
PROFILE
10
39.389152
20
83.025210
30
0.0
0
VERTEX
8
PROFILE
10
39.524323
20
83.823529
30
0.0
0
VERTEX
8
PROFILE
10
39.655773
20
84.621849
30
0.0
0
VERTEX
8
PROFILE
10
39.783443
20
85.420168
30
0.0
0
VERTEX
8
PROFILE
10
39.907278
20
86.218487
30
0.0
0
VERTEX
8
PROFILE
10
40.027219
20
87.016807
30
0.0
0
VERTEX
8
PROFILE
10
40.143211
20
87.815126
30
0.0
0
VERTEX
8
PROFILE
10
40.255197
20
88.613445
30
0.0
0
VERTEX
8
PROFILE
10
40.363118
20
89.411765
30
0.0
0
VERTEX
8
PROFILE
10
40.466919
20
90.210084
30
0.0
0
VERTEX
8
PROFILE
10
40.566542
20
91.008403
30
0.0
0
VERTEX
8
PROFILE
10
40.661931
20
91.806723
30
0.0
0
VERTEX
8
PROFILE
10
40.753028
20
92.605042
30
0.0
0
VERTEX
8
PROFILE
10
40.839777
20
93.403361
30
0.0
0
VERTEX
8
PROFILE
10
40.922120
20
94.201681
30
0.0
0
VERTEX
8
PROFILE
10
41.000000
20
95.000000
30
0.0
0
VERTEX
8
PROFILE
10
0.000000
20
95.000000
30
0.0
0
SEQEND
0
LINE
8
AXIS
10
0.000000
20
0.000000
30
0.0
11
0.000000
21
95.000000
31
0.0
0
ENDSEC
0
EOF
