0
SECTION
2
HEADER
9
$ACADVER
1
AC1015
9
$INSUNITS
70
4
0
ENDSEC
0
SECTION
2
ENTITIES
0
LWPOLYLINE
8
PROFILE
90
82
70
1
10
0.000000
20
0.000000
10
16.000000
20
-0.000000
10
16.319732
20
1.201666
10
16.639380
20
2.403355
10
16.958944
20
3.605066
10
17.278424
20
4.806799
10
17.597820
20
6.008555
10
17.917132
20
7.210333
10
18.236360
20
8.412133
10
18.555504
20
9.613956
10
18.874564
20
10.815801
10
19.193540
20
12.017668
10
19.512432
20
13.219557
10
19.831241
20
14.421469
10
20.149965
20
15.623403
10
20.468605
20
16.825359
10
20.787161
20
18.027338
10
21.105634
20
19.229339
10
21.424022
20
20.431362
10
21.742326
20
21.633407
10
22.060546
20
22.835475
10
22.378683
20
24.037564
10
22.696735
20
25.239676
10
23.014703
20
26.441811
10
23.332587
20
27.643967
10
23.650388
20
28.846146
10
23.968104
20
30.048347
10
24.285736
20
31.250570
10
24.603285
20
32.452815
10
24.920749
20
33.655082
10
25.238129
20
34.857372
10
25.555425
20
36.059684
10
25.872638
20
37.262017
10
26.189766
20
38.464374
10
26.506810
20
39.666752
10
26.823770
20
40.869152
10
27.140647
20
42.071575
10
27.457439
20
43.274019
10
27.774147
20
44.476486
10
28.090771
20
45.678975
10
28.407311
20
46.881486
10
28.723767
20
48.084019
10
29.040139
20
49.286575
10
29.356427
20
50.489152
10
29.672631
20
51.691752
10
29.988751
20
52.894373
10
30.304787
20
54.097017
10
30.620739
20
55.299683
10
30.936607
20
56.502370
10
31.252391
20
57.705080
10
31.568091
20
58.907812
10
31.883707
20
60.110566
10
32.199238
20
61.313342
10
32.514686
20
62.516140
10
32.830050
20
63.718960
10
33.145329
20
64.921803
10
33.460525
20
66.124667
10
33.775636
20
67.327553
10
34.090664
20
68.530461
10
34.405607
20
69.733391
10
34.720467
20
70.936344
10
35.035242
20
72.139318
10
35.349933
20
73.342314
10
35.664540
20
74.545332
10
35.979063
20
75.748373
10
36.293502
20
76.951435
10
36.607857
20
78.154519
10
36.922128
20
79.357625
10
37.236315
20
80.560753
10
37.550418
20
81.763903
10
37.864437
20
82.967075
10
38.178371
20
84.170269
10
38.492222
20
85.373485
10
38.805989
20
86.576722
10
39.119671
20
87.779982
10
39.433269
20
88.983264
10
39.746784
20
90.186567
10
40.060214
20
91.389892
10
40.373560
20
92.593240
10
40.686822
20
93.796609
10
41.000000
20
95.000000
10
0.000000
20
95.000000
0
LINE
8
AXIS
10
0.000000
20
0.000000
30
0.0
11
0.000000
21
95.000000
31
0.0
0
ENDSEC
0
EOF
